<svg id="visual" viewBox="0 0 960 540" width="960" height="540" xmlns="http://www.w3.org/2000/svg" xmlns:xlink="http://www.w3.org/1999/xlink" version="1.1"><rect x="0" y="0" width="960" height="540" fill="#001220"></rect><defs><linearGradient id="grad1_0" x1="43.8%" y1="0%" x2="100%" y2="100%"><stop offset="14.444444444444446%" stop-color="#001220" stop-opacity="1"></stop><stop offset="85.55555555555554%" stop-color="#001220" stop-opacity="1"></stop></linearGradient></defs><defs><linearGradient id="grad2_0" x1="0%" y1="0%" x2="56.3%" y2="100%"><stop offset="14.444444444444446%" stop-color="#001220" stop-opacity="1"></stop><stop offset="85.55555555555554%" stop-color="#001220" stop-opacity="1"></stop></linearGradient></defs><g transform="translate(960, 0)"><path d="M0 243C-29.9 232.2 -59.7 221.3 -86.1 207.9C-112.5 194.4 -135.3 178.4 -159.8 159.8C-184.3 141.2 -210.4 120.1 -224.5 93C-238.6 65.9 -240.8 33 -243 0L0 0Z" fill="#EEC643"></path></g><g transform="translate(0, 540)"><path d="M0 -243C26.6 -220.4 53.1 -197.9 75 -181.1C96.9 -164.3 114.2 -153.3 141.4 -141.4C168.7 -129.5 205.9 -116.7 224.5 -93C243.1 -69.3 243 -34.6 243 0L0 0Z" fill="#EEC643"></path></g></svg>