<svg width="968" height="548" viewBox="0 0 968 548" fill="none" xmlns="http://www.w3.org/2000/svg">
<g id="blur2" clip-path="url(#clip0_38_264)" filter="url(#filter0_d_38_264)">
<path id="Vector" d="M964 0H4V540H964V0Z" fill="#1A1A1D"/>
<g id="circles" filter="url(#filter1_f_38_264)">
<path id="delete" d="M752 666C952.479 666 1115 503.479 1115 303C1115 102.521 952.479 -60 752 -60C551.521 -60 389 102.521 389 303C389 503.479 551.521 666 752 666Z" fill="#BDC2BF"/>
<path id="c5" d="M76 779C276.479 779 439 616.479 439 416C439 215.521 276.479 53 76 53C-124.479 53 -287 215.521 -287 416C-287 616.479 -124.479 779 76 779Z" fill="#BDC2BF"/>
<path id="c4" d="M924 454C1124.48 454 1287 291.479 1287 91C1287 -109.479 1124.48 -272 924 -272C723.521 -272 561 -109.479 561 91C561 291.479 723.521 454 924 454Z" fill="#BDC2BF"/>
<path id="c3" d="M235 527C435.479 527 598 364.479 598 164C598 -36.4794 435.479 -199 235 -199C34.5206 -199 -128 -36.4794 -128 164C-128 364.479 34.5206 527 235 527Z" fill="#BDC2BF"/>
<path id="c2" d="M802 416C1002.48 416 1165 253.479 1165 53C1165 -147.479 1002.48 -310 802 -310C601.521 -310 439 -147.479 439 53C439 253.479 601.521 416 802 416Z" fill="#1A1A1D"/>
<path id="c1" d="M235 363C435.479 363 598 200.479 598 0C598 -200.479 435.479 -363 235 -363C34.5206 -363 -128 -200.479 -128 0C-128 200.479 34.5206 363 235 363Z" fill="#1A1A1D"/>
</g>
</g>
<defs>
<filter id="filter0_d_38_264" x="0" y="0" width="968" height="548" filterUnits="userSpaceOnUse" color-interpolation-filters="sRGB">
<feFlood flood-opacity="0" result="BackgroundImageFix"/>
<feColorMatrix in="SourceAlpha" type="matrix" values="0 0 0 0 0 0 0 0 0 0 0 0 0 0 0 0 0 0 127 0" result="hardAlpha"/>
<feOffset dy="4"/>
<feGaussianBlur stdDeviation="2"/>
<feComposite in2="hardAlpha" operator="out"/>
<feColorMatrix type="matrix" values="0 0 0 0 0 0 0 0 0 0 0 0 0 0 0 0 0 0 0.25 0"/>
<feBlend mode="normal" in2="BackgroundImageFix" result="effect1_dropShadow_38_264"/>
<feBlend mode="normal" in="SourceGraphic" in2="effect1_dropShadow_38_264" result="shape"/>
</filter>
<filter id="filter1_f_38_264" x="-613" y="-689" width="2226" height="1794" filterUnits="userSpaceOnUse" color-interpolation-filters="sRGB">
<feFlood flood-opacity="0" result="BackgroundImageFix"/>
<feBlend mode="normal" in="SourceGraphic" in2="BackgroundImageFix" result="shape"/>
<feGaussianBlur stdDeviation="163" result="effect1_foregroundBlur_38_264"/>
</filter>
<clipPath id="clip0_38_264">
<rect width="960" height="540" fill="white" transform="translate(4)"/>
</clipPath>
</defs>
</svg>
