<svg width="960" height="540" viewBox="0 0 960 540" fill="none" xmlns="http://www.w3.org/2000/svg">
<g id="lava-waves-2" clip-path="url(#clip0_19_32)">
<path id="layer99" d="M0 430L137 407L274 409L411 403L549 409L686 440L823 425L960 419V541H823H686H549H411H274H137H0V430Z" fill="#EEC643"/>
<path id="layer88" d="M0 422L137 442L274 435L411 454L549 439L686 430L823 443L960 446V541H823H686H549H411H274H137H0V422Z" fill="#E5AA45"/>
<path id="layer77" d="M0 437L137 460L274 452H411L549 436L686 430L823 448L960 440V541H823H686H549H411H274H137H0V437Z" fill="#D68F49"/>
<path id="layer66" d="M0 445L137 477L274 479L411 463L549 470L686 463L823 448L960 477V541H823H686H549H411H274H137H0V445Z" fill="#C1784B"/>
<path id="layer55" d="M0 478L137 465L274 478L411 476L549 465L686 473H823L960 474V541H823H686H549H411H274H137H0V478Z" fill="#A8644C"/>
<path id="layer44" d="M0 495L137 486L274 481L411 486L549 474L686 497L823 492L960 483V541H823H686H549H411H274H137H0V495Z" fill="#8C5249"/>
<path id="layer33" d="M0 500L137 493L274 492L411 489L549 506L686 487L823 489L960 488V541H823H686H549H411H274H137H0V500Z" fill="#6E4343"/>
<path id="layer22" d="M0 506L137 508L274 507L411 519L549 503L686 520L823 519L960 509V541H823H686H549H411H274H137H0V506Z" fill="#4F3639"/>
<path id="layer11" d="M0 523L137 528L274 524L411 517L549 518L686 525L823 516L960 517V541H823H686H549H411H274H137H0V523Z" fill="#31292B"/>
</g>
<defs>
<clipPath id="clip0_19_32">
<rect width="960" height="540" fill="white"/>
</clipPath>
</defs>
</svg>
