<svg width="960" height="540" viewBox="0 0 960 540" fill="none" xmlns="http://www.w3.org/2000/svg">
<g clip-path="url(#clip0_52_435)">
<path d="M960 0H0V540H960V0Z" fill="#1A1A1D"/>
<path d="M0 117L22.8 112.8C45.7 108.7 91.3 100.3 137 102.2C182.7 104 228.3 116 274 121.5C319.7 127 365.3 126 411.2 123.5C457 121 503 117 548.8 110.2C594.7 103.3 640.3 93.7 686 90.2C731.7 86.7 777.3 89.3 823 96.3C868.7 103.3 914.3 114.7 937.2 120.3L960 126V0H937.2C914.3 0 868.7 0 823 0C777.3 0 731.7 0 686 0C640.3 0 594.7 0 548.8 0C503 0 457 0 411.2 0C365.3 0 319.7 0 274 0C228.3 0 182.7 0 137 0C91.3 0 45.7 0 22.8 0H0V117Z" fill="#E9ECEF"/>
<path d="M0 72L22.8 77.2C45.7 82.3 91.3 92.7 137 94.5C182.7 96.3 228.3 89.7 274 88C319.7 86.3 365.3 89.7 411.2 87.7C457 85.7 503 78.3 548.8 73.7C594.7 69 640.3 67 686 65.8C731.7 64.7 777.3 64.3 823 69C868.7 73.7 914.3 83.3 937.2 88.2L960 93V0H937.2C914.3 0 868.7 0 823 0C777.3 0 731.7 0 686 0C640.3 0 594.7 0 548.8 0C503 0 457 0 411.2 0C365.3 0 319.7 0 274 0C228.3 0 182.7 0 137 0C91.3 0 45.7 0 22.8 0H0V72Z" fill="#AFB1B5"/>
<path d="M0 73L22.8 71.2C45.7 69.3 91.3 65.7 137 66.2C182.7 66.7 228.3 71.3 274 70.5C319.7 69.7 365.3 63.3 411.2 62.2C457 61 503 65 548.8 69.7C594.7 74.3 640.3 79.7 686 76.5C731.7 73.3 777.3 61.7 823 59.8C868.7 58 914.3 66 937.2 70L960 74V0H937.2C914.3 0 868.7 0 823 0C777.3 0 731.7 0 686 0C640.3 0 594.7 0 548.8 0C503 0 457 0 411.2 0C365.3 0 319.7 0 274 0C228.3 0 182.7 0 137 0C91.3 0 45.7 0 22.8 0H0V73Z" fill="#797A7E"/>
<path d="M0 43L22.8 41.5C45.7 40 91.3 37 137 37C182.7 37 228.3 40 274 39.5C319.7 39 365.3 35 411.2 32.8C457 30.7 503 30.3 548.8 34C594.7 37.7 640.3 45.3 686 46C731.7 46.7 777.3 40.3 823 39.3C868.7 38.3 914.3 42.7 937.2 44.8L960 47V0H937.2C914.3 0 868.7 0 823 0C777.3 0 731.7 0 686 0C640.3 0 594.7 0 548.8 0C503 0 457 0 411.2 0C365.3 0 319.7 0 274 0C228.3 0 182.7 0 137 0C91.3 0 45.7 0 22.8 0H0V43Z" fill="#47474B"/>
<path d="M0 26L22.8 24.7C45.7 23.3 91.3 20.7 137 20.5C182.7 20.3 228.3 22.7 274 21.8C319.7 21 365.3 17 411.2 18.3C457 19.7 503 26.3 548.8 27.3C594.7 28.3 640.3 23.7 686 23.3C731.7 23 777.3 27 823 29.3C868.7 31.7 914.3 32.3 937.2 32.7L960 33V0H937.2C914.3 0 868.7 0 823 0C777.3 0 731.7 0 686 0C640.3 0 594.7 0 548.8 0C503 0 457 0 411.2 0C365.3 0 319.7 0 274 0C228.3 0 182.7 0 137 0C91.3 0 45.7 0 22.8 0H0V26Z" fill="#1A1A1D"/>
</g>
<defs>
<clipPath id="clip0_52_435">
<rect width="960" height="540" fill="white"/>
</clipPath>
</defs>
</svg>
