<svg id="visual" viewBox="0 0 960 540" width="960" height="540" xmlns="http://www.w3.org/2000/svg" xmlns:xlink="http://www.w3.org/1999/xlink" version="1.1"><rect x="0" y="0" width="960" height="540" fill="#001220"></rect><defs><linearGradient id="grad1_0" x1="43.8%" y1="0%" x2="100%" y2="100%"><stop offset="14.444444444444446%" stop-color="#001220" stop-opacity="1"></stop><stop offset="85.55555555555554%" stop-color="#001220" stop-opacity="1"></stop></linearGradient></defs><defs><linearGradient id="grad2_0" x1="0%" y1="0%" x2="56.3%" y2="100%"><stop offset="14.444444444444446%" stop-color="#001220" stop-opacity="1"></stop><stop offset="85.55555555555554%" stop-color="#001220" stop-opacity="1"></stop></linearGradient></defs><g transform="translate(960, 0)"><path d="M0 243C-23.3 221.8 -46.5 200.7 -80 193.1C-113.5 185.5 -157.1 191.4 -171.8 171.8C-186.5 152.2 -172.2 107.1 -179.2 74.2C-186.3 41.3 -214.6 20.7 -243 0L0 0Z" fill="#EEC643"></path></g><g transform="translate(0, 540)"><path d="M0 -243C30 -236.9 60 -230.9 91.5 -220.8C122.9 -210.7 155.9 -196.6 171.8 -171.8C187.8 -147 186.8 -111.5 195.9 -81.1C204.9 -50.7 223.9 -25.4 243 0L0 0Z" fill="#EEC643"></path></g></svg>