<svg width="960" height="540" viewBox="0 0 960 540" fill="none" xmlns="http://www.w3.org/2000/svg">
<g id="graywave" clip-path="url(#clip0_37_215)">
<path id="delete" d="M960 0H0V540H960V0Z" fill="#1A1A1D"/>
<path id="w5" d="M0 100.078L22.8 102.127C45.7 104.175 91.3 108.272 137 107.394C182.7 106.516 228.3 100.664 274 97.2691C319.7 93.8161 365.3 92.8797 411.2 94.3429C457 95.806 503 99.6687 548.8 101.717C594.7 103.765 640.3 104 686 101.834C731.7 99.6687 777.3 95.2207 823 99.0249C868.7 102.829 914.3 114.885 937.2 120.972L960 127V0H937.2C914.3 0 868.7 0 823 0C777.3 0 731.7 0 686 0C640.3 0 594.7 0 548.8 0C503 0 457 0 411.2 0C365.3 0 319.7 0 274 0C228.3 0 182.7 0 137 0C91.3 0 45.7 0 22.8 0H0V100.078Z" fill="#BDC2BF"/>
<path id="w4" d="M0 91.9908L22.8 92.3501C45.7 92.7095 91.3 93.4282 137 95.3686C182.7 97.2372 228.3 100.399 274 99.0339C319.7 97.7402 365.3 91.9908 411.2 89.9785C457 87.8943 503 89.6192 548.8 89.691C594.7 89.8348 640.3 88.3974 686 95.0811C731.7 101.837 777.3 116.641 823 122.894C868.7 129.146 914.3 126.703 937.2 125.553L960 124.331V0H937.2C914.3 0 868.7 0 823 0C777.3 0 731.7 0 686 0C640.3 0 594.7 0 548.8 0C503 0 457 0 411.2 0C365.3 0 319.7 0 274 0C228.3 0 182.7 0 137 0C91.3 0 45.7 0 22.8 0H0V91.9908Z" fill="#8E9494"/>
<path id="w3" d="M0 61.3223L22.8 60.9778C45.7 60.6333 91.3 59.9442 137 61.1156C182.7 62.218 228.3 65.2497 274 65.6631C319.7 66.1454 365.3 64.0783 411.2 68.7636C457 73.5178 503 84.9555 548.8 89.7786C594.7 94.6017 640.3 92.8102 686 93.1547C731.7 93.4992 777.3 95.9797 823 90.3987C868.7 84.7488 914.3 70.9685 937.2 64.0783L960 57.1882V0H937.2C914.3 0 868.7 0 823 0C777.3 0 731.7 0 686 0C640.3 0 594.7 0 548.8 0C503 0 457 0 411.2 0C365.3 0 319.7 0 274 0C228.3 0 182.7 0 137 0C91.3 0 45.7 0 22.8 0H0V61.3223Z" fill="#63686A"/>
<path id="w2" d="M0 94L22.8 93.5C45.7 93 91.3 92 137 86C182.7 80 228.3 69 274 62.5C319.7 56 365.3 54 411.2 55C457 56 503 60 548.8 61C594.7 62 640.3 60 686 62.5C731.7 65 777.3 72 823 74.7C868.7 77.3 914.3 75.7 937.2 74.8L960 74V0H937.2C914.3 0 868.7 0 823 0C777.3 0 731.7 0 686 0C640.3 0 594.7 0 548.8 0C503 0 457 0 411.2 0C365.3 0 319.7 0 274 0C228.3 0 182.7 0 137 0C91.3 0 45.7 0 22.8 0H0V94Z" fill="#3C3F42"/>
<path id="w1" d="M0 41L22.8 40.8C45.7 40.7 91.3 40.3 137 40.2C182.7 40 228.3 40 274 42C319.7 44 365.3 48 411.2 45.3C457 42.7 503 33.3 548.8 31.5C594.7 29.7 640.3 35.3 686 36C731.7 36.7 777.3 32.3 823 32.3C868.7 32.3 914.3 36.7 937.2 38.8L960 41V0H937.2C914.3 0 868.7 0 823 0C777.3 0 731.7 0 686 0C640.3 0 594.7 0 548.8 0C503 0 457 0 411.2 0C365.3 0 319.7 0 274 0C228.3 0 182.7 0 137 0C91.3 0 45.7 0 22.8 0H0V41Z" fill="#1A1A1D"/>
</g>
<defs>
<clipPath id="clip0_37_215">
<rect width="960" height="540" fill="white"/>
</clipPath>
</defs>
</svg>
