<svg width="960" height="540" viewBox="0 0 960 540" fill="none" xmlns="http://www.w3.org/2000/svg">
<g id="lava-waves" clip-path="url(#clip0_17_20)">
<path id="layer9" d="M0 406L137 421L274 447L411 418L549 410L686 426L823 436L960 428V541H823H686H549H411H274H137H0V406Z" fill="#EEC643"/>
<path id="layer8" d="M0 422L137 434L274 448L411 438L549 445L686 453L823 460L960 421V541H823H686H549H411H274H137H0V422Z" fill="#E5AA45"/>
<path id="layer7" d="M0 443L137 437L274 453L411 431L549 435L686 442L823 456L960 436V541H823H686H549H411H274H137H0V443Z" fill="#D68F49"/>
<path id="layer6" d="M0 465L137 476L274 451L411 464L549 465L686 472L823 454L960 469V541H823H686H549H411H274H137H0V465Z" fill="#C1784B"/>
<path id="layer5" d="M0 479L137 482L274 464L411 483L549 459L686 489L823 470L960 472V541H823H686H549H411H274H137H0V479Z" fill="#A8644C"/>
<path id="layer4" d="M0 472L137 498L274 492L411 499L549 479L686 485L823 480L960 474V541H823H686H549H411H274H137H0V472Z" fill="#8C5249"/>
<path id="layer3" d="M0 501L137 490L274 495L411 500L549 504L686 493L823 488L960 507V541H823H686H549H411H274H137H0V501Z" fill="#6E4343"/>
<path id="layer2" d="M0 503L137 513L274 504L411 521L549 503L686 518H823L960 513V541H823H686H549H411H274H137H0V503Z" fill="#4F3639"/>
<path id="layer1" d="M0 530H137L274 521H411L549 525L686 522L823 517L960 523V541H823H686H549H411H274H137H0V530Z" fill="#31292B"/>
</g>
<defs>
<clipPath id="clip0_17_20">
<rect width="960" height="540" fill="white"/>
</clipPath>
</defs>
</svg>
