<svg id="visual" viewBox="0 0 960 540" width="960" height="540" xmlns="http://www.w3.org/2000/svg" xmlns:xlink="http://www.w3.org/1999/xlink" version="1.1"><rect x="0" y="0" width="960" height="540" fill="#001220"></rect><defs><linearGradient id="grad1_0" x1="43.8%" y1="0%" x2="100%" y2="100%"><stop offset="14.444444444444446%" stop-color="#001220" stop-opacity="1"></stop><stop offset="85.55555555555554%" stop-color="#001220" stop-opacity="1"></stop></linearGradient></defs><defs><linearGradient id="grad2_0" x1="0%" y1="0%" x2="56.3%" y2="100%"><stop offset="14.444444444444446%" stop-color="#001220" stop-opacity="1"></stop><stop offset="85.55555555555554%" stop-color="#001220" stop-opacity="1"></stop></linearGradient></defs><g transform="translate(960, 0)"><path d="M0 324C-13.2 283.6 -26.4 243.3 -48 241.3C-69.6 239.3 -99.5 275.6 -111.7 269.8C-124 264 -118.5 216 -137.2 205.4C-156 194.8 -199 221.5 -216.4 216.4C-233.7 211.3 -225.4 174.3 -225.3 150.6C-225.3 126.8 -233.4 116.4 -253.1 104.9C-272.8 93.4 -304 80.9 -317.8 63.2C-331.5 45.6 -327.8 22.8 -324 0L0 0Z" fill="#EEC643"></path></g><g transform="translate(0, 540)"><path d="M0 -324C9.7 -269.5 19.4 -215 44.3 -222.6C69.2 -230.3 109.3 -300.2 124 -299.3C138.6 -298.5 127.8 -226.9 130 -194.6C132.2 -162.2 147.4 -169 175.4 -175.4C203.4 -181.7 244.2 -187.7 264.4 -176.7C284.6 -165.6 284.3 -137.6 272.5 -112.9C260.8 -88.2 237.5 -66.8 244.2 -48.6C250.9 -30.3 287.4 -15.2 324 0L0 0Z" fill="#EEC643"></path></g></svg>