<svg id="visual" viewBox="0 0 960 540" width="960" height="540" xmlns="http://www.w3.org/2000/svg" xmlns:xlink="http://www.w3.org/1999/xlink" version="1.1"><rect x="0" y="0" width="960" height="540" fill="#001220"></rect><defs><linearGradient id="grad1_0" x1="43.8%" y1="0%" x2="100%" y2="100%"><stop offset="14.444444444444446%" stop-color="#001220" stop-opacity="1"></stop><stop offset="85.55555555555554%" stop-color="#001220" stop-opacity="1"></stop></linearGradient></defs><defs><linearGradient id="grad2_0" x1="0%" y1="0%" x2="56.3%" y2="100%"><stop offset="14.444444444444446%" stop-color="#001220" stop-opacity="1"></stop><stop offset="85.55555555555554%" stop-color="#001220" stop-opacity="1"></stop></linearGradient></defs><g transform="translate(960, 0)"><path d="M0 324C-18.4 289.4 -36.9 254.7 -68.3 255C-99.8 255.3 -144.2 290.5 -162 280.6C-179.8 270.7 -170.8 215.7 -191.6 191.6C-212.4 167.6 -262.9 174.6 -271.9 157C-280.9 139.4 -248.4 97.3 -250.2 67C-251.9 36.8 -288 18.4 -324 0L0 0Z" fill="#EEC643"></path></g><g transform="translate(0, 540)"><path d="M0 -324C25.4 -303.1 50.7 -282.2 71.2 -265.6C91.6 -249 107.1 -236.7 136 -235.6C164.9 -234.4 207.1 -244.3 229.1 -229.1C251.1 -213.9 252.9 -173.7 244.2 -141C235.5 -108.3 216.4 -83.3 228 -61.1C239.5 -38.9 281.8 -19.4 324 0L0 0Z" fill="#EEC643"></path></g></svg>