<svg id="visual" viewBox="0 0 960 540" width="960" height="540" xmlns="http://www.w3.org/2000/svg" xmlns:xlink="http://www.w3.org/1999/xlink" version="1.1"><rect x="0" y="0" width="960" height="540" fill="#001220"></rect><defs><linearGradient id="grad1_0" x1="43.8%" y1="0%" x2="100%" y2="100%"><stop offset="14.444444444444446%" stop-color="#001220" stop-opacity="1"></stop><stop offset="85.55555555555554%" stop-color="#001220" stop-opacity="1"></stop></linearGradient></defs><defs><linearGradient id="grad2_0" x1="0%" y1="0%" x2="56.3%" y2="100%"><stop offset="14.444444444444446%" stop-color="#001220" stop-opacity="1"></stop><stop offset="85.55555555555554%" stop-color="#001220" stop-opacity="1"></stop></linearGradient></defs><g transform="translate(960, 0)"><path d="M0 243C-34.4 239.3 -68.9 235.7 -89.5 216.2C-110.2 196.7 -117.1 161.4 -140.7 140.7C-164.3 120 -204.7 114 -224.5 93C-244.3 72 -243.7 36 -243 0L0 0Z" fill="#EEC643"></path></g><g transform="translate(0, 540)"><path d="M0 -243C34.7 -242.3 69.5 -241.6 93 -224.5C116.5 -207.4 128.8 -173.7 150.6 -150.6C172.4 -127.5 203.8 -114.8 220.8 -91.5C237.8 -68.1 240.4 -34.1 243 0L0 0Z" fill="#EEC643"></path></g></svg>