<svg width="960" height="540" viewBox="0 0 960 540" fill="none" xmlns="http://www.w3.org/2000/svg">
<g clip-path="url(#clip0_52_428)">
<path d="M960 0H0V540H960V0Z" fill="#1A1A1D"/>
<path d="M0 131L22.8 126.2C45.7 121.3 91.3 111.7 137 112.2C182.7 112.7 228.3 123.3 274 124.8C319.7 126.3 365.3 118.7 411.2 112.5C457 106.3 503 101.7 548.8 102.3C594.7 103 640.3 109 686 114.3C731.7 119.7 777.3 124.3 823 124.8C868.7 125.3 914.3 121.7 937.2 119.8L960 118V0H937.2C914.3 0 868.7 0 823 0C777.3 0 731.7 0 686 0C640.3 0 594.7 0 548.8 0C503 0 457 0 411.2 0C365.3 0 319.7 0 274 0C228.3 0 182.7 0 137 0C91.3 0 45.7 0 22.8 0H0V131Z" fill="#E9ECEF"/>
<path d="M0 73L22.8 77.2C45.7 81.3 91.3 89.7 137 94.2C182.7 98.7 228.3 99.3 274 99.3C319.7 99.3 365.3 98.7 411.2 95.7C457 92.7 503 87.3 548.8 89C594.7 90.7 640.3 99.3 686 98.2C731.7 97 777.3 86 823 79.3C868.7 72.7 914.3 70.3 937.2 69.2L960 68V0H937.2C914.3 0 868.7 0 823 0C777.3 0 731.7 0 686 0C640.3 0 594.7 0 548.8 0C503 0 457 0 411.2 0C365.3 0 319.7 0 274 0C228.3 0 182.7 0 137 0C91.3 0 45.7 0 22.8 0H0V73Z" fill="#AFB1B5"/>
<path d="M0 59L22.8 62C45.7 65 91.3 71 137 71.3C182.7 71.7 228.3 66.3 274 62.8C319.7 59.3 365.3 57.7 411.2 60.8C457 64 503 72 548.8 71.2C594.7 70.3 640.3 60.7 686 59.8C731.7 59 777.3 67 823 67.2C868.7 67.3 914.3 59.7 937.2 55.8L960 52V0H937.2C914.3 0 868.7 0 823 0C777.3 0 731.7 0 686 0C640.3 0 594.7 0 548.8 0C503 0 457 0 411.2 0C365.3 0 319.7 0 274 0C228.3 0 182.7 0 137 0C91.3 0 45.7 0 22.8 0H0V59Z" fill="#797A7E"/>
<path d="M0 38H22.8C45.7 38 91.3 38 137 38C182.7 38 228.3 38 274 41.8C319.7 45.7 365.3 53.3 411.2 52.8C457 52.3 503 43.7 548.8 38.8C594.7 34 640.3 33 686 32.2C731.7 31.3 777.3 30.7 823 33.5C868.7 36.3 914.3 42.7 937.2 45.8L960 49V0H937.2C914.3 0 868.7 0 823 0C777.3 0 731.7 0 686 0C640.3 0 594.7 0 548.8 0C503 0 457 0 411.2 0C365.3 0 319.7 0 274 0C228.3 0 182.7 0 137 0C91.3 0 45.7 0 22.8 0H0V38Z" fill="#47474B"/>
<path d="M0 19L22.8 21.8C45.7 24.7 91.3 30.3 137 31.5C182.7 32.7 228.3 29.3 274 27C319.7 24.7 365.3 23.3 411.2 24.8C457 26.3 503 30.7 548.8 31.5C594.7 32.3 640.3 29.7 686 28.7C731.7 27.7 777.3 28.3 823 27.5C868.7 26.7 914.3 24.3 937.2 23.2L960 22V0H937.2C914.3 0 868.7 0 823 0C777.3 0 731.7 0 686 0C640.3 0 594.7 0 548.8 0C503 0 457 0 411.2 0C365.3 0 319.7 0 274 0C228.3 0 182.7 0 137 0C91.3 0 45.7 0 22.8 0H0V19Z" fill="#1A1A1D"/>
</g>
<defs>
<clipPath id="clip0_52_428">
<rect width="960" height="540" fill="white"/>
</clipPath>
</defs>
</svg>
